<?xml version="1.0" standalone="no"?><!DOCTYPE svg PUBLIC "-//W3C//DTD SVG 1.1//EN" "http://www.w3.org/Graphics/SVG/1.1/DTD/svg11.dtd"><svg width="24" height="24" viewBox="0 0 200 200" version="1.1" xmlns="http://www.w3.org/2000/svg" xmlns:xlink="http://www.w3.org/1999/xlink"><defs><style type="text/css"><![CDATA[
@font-face { font-family: ifont; src: url("http://at.alicdn.com/t/font_1442373896_4754455.eot?#iefix") format("embedded-opentype"), url("http://at.alicdn.com/t/font_1442373896_4754455.woff") format("woff"), url("http://at.alicdn.com/t/font_1442373896_4754455.ttf") format("truetype"), url("http://at.alicdn.com/t/font_1442373896_4754455.svg#ifont") format("svg"); }

]]></style></defs><g class="transform-group"><g transform="scale(0.1953125, 0.1953125)"><path d="M896.384 525.568l-353.536-355.84c-7.808-7.808-18.048-11.648-28.288-11.52-1.408-0.128-2.56-0.768-3.968-0.768-5.76 0-11.136 1.28-16 3.584-4.992 1.92-9.728 4.736-13.696 8.832L162.048 488.192c-15.36 15.36-15.488 40.32 0 55.68 7.68 7.68 17.792 11.52 27.904 11.52 10.112 0 20.096-3.84 27.776-11.52l253.696-253.312 0 693.376c0 21.76 17.664 39.424 39.296 39.424 21.76 0 39.424-17.536 39.424-39.424L550.144 288.64l290.56 292.352c7.68 7.68 17.792 11.648 27.904 11.648 10.112 0 20.096-3.84 27.776-11.392C911.744 565.888 911.744 540.928 896.384 525.568L896.384 525.568zM943.616 78.72 77.824 78.72c-21.76 0-39.424-17.664-39.424-39.296C38.4 17.664 56.064 0 77.824 0l865.92 0c21.76 0 39.296 17.664 39.296 39.424C983.04 61.056 965.376 78.72 943.616 78.72L943.616 78.72zM943.616 78.72" fill="#FCFCFC"></path></g></g></svg>